# xmcd
#
# Track frame offsets:
#        150
#        14981
#        31352
#        47234
#        61336
#        77053
#        94680
#        112167
#        128372
#        143823
#        161114
#        174880
#        188571
#        206641
#        223592
#        252154
#
# Disc length: 3377 seconds
#
# Revision: 0
# Processed by: cddbd v1.5.2PL0 Copyright (c) Steve Scherf et al.
# Submitted via: CDGFix 3.8
#
DISCID=e00d2f10
DTITLE=Billy Dean - CB90250
DYEAR=1900
DGENRE=Karaoke
TTITLE0=Billy Dean - Billy The Kid
TTITLE1=Billy Dean - Only Here For A Little While
TTITLE2=Billy Dean - If There Hadn't Been You
TTITLE3=Billy Dean - Thank God I'm A Country Boy
TTITLE4=Billy Dean - Somewhere In My Broken Heart
TTITLE5=Billy Dean - Tryin' To Hide A Fire In The Dark
TTITLE6=Billy Dean - Let Them Be Little
TTITLE7=Billy Dean - We Just Disagree
TTITLE8=Billy Dean - You Don't Count The Cost
TTITLE9=Billy Dean - I'm In Love With You
TTITLE10=Billy Dean - I'm Not Built That Way
TTITLE11=Billy Dean - Innocent Bystander
TTITLE12=Billy Dean - Once In A While
TTITLE13=Billy Dean - Only The Wind
TTITLE14=Billy Dean - Real Man
TTITLE15=DATA - DATA TRACK
EXTD=
EXTT0=
EXTT1=
EXTT2=
EXTT3=
EXTT4=
EXTT5=
EXTT6=
EXTT7=
EXTT8=
EXTT9=
EXTT10=
EXTT11=
EXTT12=
EXTT13=
EXTT14=
EXTT15=
PLAYORDER=
